<?xml version="1.0" encoding="UTF-8" standalone="no"?>
<!-- Created with Inkscape (http://www.inkscape.org/) -->

<svg
   xmlns:dc="http://purl.org/dc/elements/1.1/"
   xmlns:cc="http://creativecommons.org/ns#"
   xmlns:rdf="http://www.w3.org/1999/02/22-rdf-syntax-ns#"
   xmlns:svg="http://www.w3.org/2000/svg"
   xmlns="http://www.w3.org/2000/svg"
   xmlns:xlink="http://www.w3.org/1999/xlink"
   xmlns:sodipodi="http://sodipodi.sourceforge.net/DTD/sodipodi-0.dtd"
   xmlns:inkscape="http://www.inkscape.org/namespaces/inkscape"
   id="svg4136"
   version="1.1"
   inkscape:version="0.91 r13725"
   width="255.33681"
   height="255.37485"
   viewBox="0 0 255.33681 255.37485"
   sodipodi:docname="605px-Topgun_patch.svg">
  <metadata
     id="metadata4142">
    <rdf:RDF>
      <cc:Work
         rdf:about="">
        <dc:format>image/svg+xml</dc:format>
        <dc:type
           rdf:resource="http://purl.org/dc/dcmitype/StillImage" />
        <dc:title></dc:title>
      </cc:Work>
    </rdf:RDF>
  </metadata>
  <defs
     id="defs4140">
    <linearGradient
       inkscape:collect="always"
       id="linearGradient4170">
      <stop
         style="stop-color:#ffffff;stop-opacity:1;"
         offset="0"
         id="stop4172" />
      <stop
         style="stop-color:#ffffff;stop-opacity:0;"
         offset="1"
         id="stop4174" />
    </linearGradient>
    <linearGradient
       inkscape:collect="always"
       xlink:href="#linearGradient4170"
       id="linearGradient4168"
       x1="155.799"
       y1="123.48842"
       x2="-30.982756"
       y2="194.30615"
       gradientUnits="userSpaceOnUse" />
    <filter
       inkscape:collect="always"
       style="color-interpolation-filters:sRGB"
       id="filter4345"
       x="-0.024001878"
       width="1.0480038"
       y="-0.023998123"
       height="1.0479962">
      <feGaussianBlur
         inkscape:collect="always"
         stdDeviation="2.4303983"
         id="feGaussianBlur4347" />
    </filter>
  </defs>
  <sodipodi:namedview
     pagecolor="#ffffff"
     bordercolor="#666666"
     borderopacity="1"
     objecttolerance="10"
     gridtolerance="10"
     guidetolerance="10"
     inkscape:pageopacity="0"
     inkscape:pageshadow="2"
     inkscape:window-width="1600"
     inkscape:window-height="838"
     id="namedview4138"
     showgrid="false"
     inkscape:zoom="1.1296606"
     inkscape:cx="376.15776"
     inkscape:cy="95.218369"
     inkscape:window-x="-8"
     inkscape:window-y="-8"
     inkscape:window-maximized="1"
     inkscape:current-layer="svg4136"
     fit-margin-top="0"
     fit-margin-left="0"
     fit-margin-right="0"
     fit-margin-bottom="0" />
  <text
     sodipodi:linespacing="125%"
     id="text4172"
     y="12.073009"
     x="252.5995"
     style="font-style:normal;font-variant:normal;font-weight:400;font-size:13.8125px;line-height:125%;font-family:Calibri;text-align:start;letter-spacing:0px;word-spacing:0px;text-anchor:start;fill:#00ffff;fill-opacity:1;stroke:none"
     xml:space="preserve"><tspan
       id="tspan4174"
       y="3.4460413e-008"
       x="4.3933092e-008"
       sodipodi:role="line"><tspan
         id="tspan4176"
         style="font-style:normal;font-variant:normal;font-weight:400;font-size:13.8125px;font-family:Calibri;fill:#00ffff"
         dy="0"
         dx="0" /></tspan></text>
  <g
     id="g4294"
     transform="matrix(0.95839746,0,0,0.95839746,0.40929223,0.44654842)">
    <ellipse
       ry="121.52943"
       rx="121.51041"
       cy="132.76421"
       cx="132.78323"
       id="ellipse4176"
       style="opacity:1;fill:#bc4046;fill-opacity:1" />
    <ellipse
       ry="121.52943"
       rx="121.51041"
       cy="132.76421"
       cx="132.78323"
       id="path4146"
       style="opacity:1;fill:none;fill-opacity:1;stroke:#000000;stroke-width:12.31599998;stroke-linecap:round;stroke-miterlimit:4;stroke-dasharray:none;stroke-opacity:1" />
    <ellipse
       style="opacity:1;fill:none;fill-opacity:1;stroke:url(#linearGradient4168);stroke-width:3.51600003;stroke-linecap:round;stroke-miterlimit:4;stroke-dasharray:none;stroke-opacity:1;filter:url(#filter4345)"
       id="ellipse4148"
       cx="132.78323"
       cy="132.76421"
       rx="121.51041"
       ry="121.52943" />
    <ellipse
       style="opacity:1;fill:#063574;fill-opacity:1"
       id="ellipse4186-6"
       cx="132.78323"
       cy="132.76421"
       rx="84.881561"
       ry="84.894844" />
    <ellipse
       ry="84.894844"
       rx="84.881561"
       cy="132.76421"
       cx="132.78323"
       id="ellipse4214"
       style="opacity:1;fill:none;fill-opacity:1;stroke:#e8192b;stroke-width:8;stroke-miterlimit:4;stroke-dasharray:none;stroke-dashoffset:0;stroke-opacity:1" />
    <g
       transform="translate(-268.42352,-12.152254)"
       id="g4238">
      <path
         id="path4163"
         transform="translate(268.42352,12.152254)"
         d="m 148.1582,145.73633 -6.09765,1.10937 c 0,0 -1.7804,2.57235 -1.70117,3.00782 0.0792,0.43546 0.43554,4.86914 0.43554,4.86914 l 13.00781,20.80273 -0.55468,-3.04883 2.83007,4.4336 3.34571,4.79101 1.08984,-0.19922 1.82031,2.59375 1.82227,2.5918 2.27539,3.85938 2.43555,2.25781 -2.03907,-5.02735 1.58399,1.28516 -2.21875,-7.24414 -4.65234,-11.97461 -3.42579,-7.69922 -4.21679,-9.58008 -1.12891,-2.49414 -4.61133,-4.33398 z m -0.71289,14.65429 5.08985,9.73829 -0.22266,0.88476 -5.75391,-10.29101 0.88672,-0.33204 z m 11.85938,5.96094 4.4414,10.04883 -0.27929,0.86914 -5.06641,-10.64453 0.9043,-0.27344 z"
         style="fill:#ea6553;fill-opacity:1;fill-rule:evenodd;stroke:none;stroke-width:1px;stroke-linecap:butt;stroke-linejoin:miter;stroke-opacity:1"
         inkscape:connector-curvature="0" />
      <path
         style="fill:#ffffff;fill-rule:evenodd;stroke:#000000;stroke-width:1px;stroke-linecap:butt;stroke-linejoin:miter;stroke-opacity:1"
         d="m 387.53262,136.49634 -33.53563,39.23127 c -1.20385,0.74382 -0.0508,2.66609 1.19819,4.6363 l 2.21306,2.21305 31.42536,-14.16354 -5.75394,8.85221 3.09828,6.63916 20.3601,-15.49137 2.90381,-0.0537 c -2.24937,-2.74409 7.57688,-13.29985 13.13757,-2.08342 l -0.99262,-2.28899 19.47488,0.88522 -0.88522,-4.86872 -14.16355,-7.52438 30.54015,3.54088 0,-8.4096 -38.50714,-15.04877 0.88522,-14.38485 c -0.95093,-0.98996 -5.39188,-1.77045 -5.39188,-1.77045 l -5.12338,12.63666 -5.86134,-6.66141 c 0,0 -0.88522,-4.42611 -1.77044,-5.31133 -0.88523,-0.88522 -6.19656,-5.75394 -6.19656,-5.75394 -2.21305,-0.346 -4.42611,-2.48664 -6.63916,-1.77044 -3.93816,0.41986 -1.7739,3.68566 -1.99175,7.08177 l -1.9649,5.93728 c -0.0529,5.54721 1.09678,9.63242 3.54089,13.93111 z"
         id="path4286"
         inkscape:connector-curvature="0"
         sodipodi:nodetypes="cccccccccccccccccccccsccccc" />
      <path
         style="fill:none;fill-rule:evenodd;stroke:#000000;stroke-width:1px;stroke-linecap:butt;stroke-linejoin:miter;stroke-opacity:1"
         d="m 387.59266,136.61466 c 4.46542,-1.60545 9.42121,16.76895 10.66562,19.01312 l -9.07622,12.51892 0,0 0,0"
         id="path4288"
         inkscape:connector-curvature="0"
         sodipodi:nodetypes="ccccc" />
      <path
         sodipodi:nodetypes="ccc"
         style="fill:none;fill-rule:evenodd;stroke:#000000;stroke-width:1px;stroke-linecap:butt;stroke-linejoin:miter;stroke-opacity:1"
         d="m 398.22031,155.49814 8.80122,12.64856 0,0"
         id="path4290"
         inkscape:connector-curvature="0" />
      <path
         style="fill:none;fill-rule:evenodd;stroke:#000000;stroke-width:1px;stroke-linecap:butt;stroke-linejoin:miter;stroke-opacity:1"
         d="m 378.68634,146.60525 6.74005,22.79334 -7.78636,-20.73216"
         id="path4292"
         inkscape:connector-curvature="0"
         sodipodi:nodetypes="ccc" />
      <path
         style="fill:none;fill-rule:evenodd;stroke:#000000;stroke-width:1px;stroke-linecap:butt;stroke-linejoin:miter;stroke-opacity:1"
         d="m 367.19801,159.93346 6.02242,15.72459 -7.19838,-12.51892 -0.22131,-1.10653"
         id="path4294"
         inkscape:connector-curvature="0"
         sodipodi:nodetypes="cccc" />
      <path
         style="fill:none;fill-rule:evenodd;stroke:#000000;stroke-width:1px;stroke-linecap:butt;stroke-linejoin:miter;stroke-opacity:1"
         d="m 357.57178,171.27643 5.94649,8.1373"
         id="path4296"
         inkscape:connector-curvature="0" />
      <path
         style="fill:none;fill-rule:evenodd;stroke:#000000;stroke-width:1px;stroke-linecap:butt;stroke-linejoin:miter;stroke-opacity:1"
         d="m 421.71554,133.88076 4.08438,18.61728 -1.56487,-17.83946 0,0"
         id="path4298"
         inkscape:connector-curvature="0"
         sodipodi:nodetypes="cccc" />
      <path
         style="fill:none;fill-rule:evenodd;stroke:#000000;stroke-width:1px;stroke-linecap:butt;stroke-linejoin:miter;stroke-opacity:1"
         d="m 437.19659,139.59021 2.37414,14.15973 0.31298,-12.51893"
         id="path4300"
         inkscape:connector-curvature="0"
         sodipodi:nodetypes="ccc" />
      <path
         style="fill:none;fill-rule:evenodd;stroke:#000000;stroke-width:1px;stroke-linecap:butt;stroke-linejoin:miter;stroke-opacity:1"
         d="m 447.70803,143.7348 1.2519,11.26703"
         id="path4302"
         inkscape:connector-curvature="0" />
      <path
         style="fill:none;fill-rule:evenodd;stroke:#000000;stroke-width:1px;stroke-linecap:butt;stroke-linejoin:miter;stroke-opacity:1"
         d="m 426.73884,152.81102 -9.07622,-3.12973 0.44261,-18.67099"
         id="path4304"
         inkscape:connector-curvature="0"
         sodipodi:nodetypes="ccc" />
      <path
         sodipodi:nodetypes="cc"
         style="fill:none;fill-rule:evenodd;stroke:#000000;stroke-width:1px;stroke-linecap:butt;stroke-linejoin:miter;stroke-opacity:1"
         d="m 417.82371,149.97202 2.96864,13.48008"
         id="path4306"
         inkscape:connector-curvature="0" />
      <path
         sodipodi:nodetypes="ccccc"
         style="fill:none;fill-rule:evenodd;stroke:#000000;stroke-width:1px;stroke-linecap:butt;stroke-linejoin:miter;stroke-opacity:1"
         d="m 417.97559,121.51371 -2.81676,-2.15284 -5.94649,28.75555 6.41134,10.58739 c 0.97633,-3.41991 1.2202,-6.32356 1.94727,-9.50311"
         id="path4308"
         inkscape:connector-curvature="0" />
      <path
         style="fill:none;fill-rule:evenodd;stroke:#000000;stroke-width:1px;stroke-linecap:butt;stroke-linejoin:miter;stroke-opacity:1"
         d="m 404.83072,136.53642 -2.19081,-6.57244 1.87784,-5.32054 0,0"
         id="path4310"
         inkscape:connector-curvature="0" />
      <path
         style="fill:none;fill-rule:evenodd;stroke:#000000;stroke-width:1px;stroke-linecap:butt;stroke-linejoin:miter;stroke-opacity:1"
         d="m 385.73936,116.19316 6.88541,9.07622 c 3.33838,-1.56292 6.67676,-3.98095 10.01514,-2.19081 l 0,0"
         id="path4312"
         inkscape:connector-curvature="0"
         sodipodi:nodetypes="cccc" />
      <path
         style="fill:none;fill-rule:evenodd;stroke:#000000;stroke-width:1px;stroke-linecap:butt;stroke-linejoin:miter;stroke-opacity:1"
         d="m 389.77004,120.84979 c 1.85071,-3.27203 5.91479,-6.89772 10.99203,-2.46581 l 0.88522,0"
         id="path4314"
         inkscape:connector-curvature="0"
         sodipodi:nodetypes="ccc" />
      <g
         id="g4232">
        <ellipse
           ry="5.0900245"
           rx="4.4261084"
           cy="143.84851"
           cx="403.66107"
           id="path4284"
           style="opacity:1;fill:#ea6553;fill-opacity:1;stroke:none;stroke-width:0;stroke-miterlimit:4;stroke-dasharray:none;stroke-dashoffset:0;stroke-opacity:1" />
        <g
           id="g4228">
          <path
             inkscape:connector-curvature="0"
             style="opacity:1;fill:#ea6553;fill-opacity:1;stroke:none;stroke-width:0;stroke-miterlimit:4;stroke-dasharray:none;stroke-dashoffset:0;stroke-opacity:1"
             d="m 399.89844,83.167969 a 58.024158,57.581551 0 0 0 -19.3711,3.376953 l 1.55664,3.582031 a 54.096771,53.684124 0 0 1 17.81446,-3.060547 54.096771,53.684124 0 0 1 18.30273,3.238282 l 1.62891,-3.583985 a 58.024158,57.581551 0 0 0 -19.93164,-3.552734 z m 55.07226,39.585941 -3.61718,1.63281 a 54.096771,53.684124 0 0 1 2.64257,16.36328 54.096771,53.684124 0 0 1 -1.62109,12.7793 l 3.29297,2.93359 0.0312,0.0176 A 58.024158,57.581551 0 0 0 457.92383,140.75 58.024158,57.581551 0 0 0 454.9707,122.75391 Z m -110.53906,1.27343 A 58.024158,57.581551 0 0 0 341.875,140.75 a 58.024158,57.581551 0 0 0 3.81836,20.35352 l 3.94336,-0.55079 a 54.096771,53.684124 0 0 1 -3.83399,-19.80273 54.096771,53.684124 0 0 1 2.31055,-15.45312 l -3.68164,-1.26954 z m 74.51367,66.94141 a 54.096771,53.684124 0 0 1 -19.04687,3.46484 54.096771,53.684124 0 0 1 -14.54492,-2.0332 l -0.72461,1.24219 c 0,0 -0.28803,1.29655 -0.5586,2.49023 a 58.024158,57.581551 0 0 0 15.82813,2.19922 58.024158,57.581551 0 0 0 21.36523,-4.09961 l -2.31836,-3.26367 z"
             id="path4267" />
          <path
             id="path4282"
             d="m 401.0054,107.73287 a 33.493648,33.238159 0 0 0 -11.1817,1.9493 l 0.89855,2.06768 a 31.226617,30.988423 0 0 1 10.28315,-1.76666 31.226617,30.988423 0 0 1 10.565,1.86926 l 0.94027,-2.06881 a 33.493648,33.238159 0 0 0 -11.50527,-2.05077 z m 31.78971,22.85044 -2.08797,0.94252 a 31.226617,30.988423 0 0 1 1.52539,9.44548 31.226617,30.988423 0 0 1 -0.93575,7.37668 l 1.90082,1.69337 0.018,0.0101 a 33.493648,33.238159 0 0 0 1.28412,-9.0802 33.493648,33.238159 0 0 0 -1.70465,-10.388 z m -63.80716,0.73507 a 33.493648,33.238159 0 0 0 -1.47578,9.65293 33.493648,33.238159 0 0 0 2.20409,11.74879 l 2.27626,-0.31794 a 31.226617,30.988423 0 0 1 -2.21312,-11.43085 31.226617,30.988423 0 0 1 1.33373,-8.9201 l -2.12518,-0.73283 z m 43.012,38.64101 a 31.226617,30.988423 0 0 1 -10.99455,2.00003 31.226617,30.988423 0 0 1 -8.39585,-1.17363 l -0.41827,0.71703 c 0,0 -0.16627,0.74842 -0.32245,1.43746 a 33.493648,33.238159 0 0 0 9.13657,1.26947 33.493648,33.238159 0 0 0 12.33279,-2.36645 l -1.33824,-1.88391 z"
             style="opacity:1;fill:#ea6553;fill-opacity:1;stroke:none;stroke-width:0;stroke-miterlimit:4;stroke-dasharray:none;stroke-dashoffset:0;stroke-opacity:1"
             inkscape:connector-curvature="0" />
        </g>
      </g>
    </g>
    <ellipse
       style="opacity:1;fill:none;fill-opacity:1;stroke:#f06858;stroke-width:8;stroke-miterlimit:4;stroke-dasharray:32, 32;stroke-dashoffset:0;stroke-opacity:1"
       id="ellipse4186"
       cx="132.78323"
       cy="132.76421"
       rx="84.881561"
       ry="84.894844" />
    <path
       style="fill:#000000;fill-opacity:1;fill-rule:evenodd;stroke:none"
       d="m 21.411293,130.87708 c 5.830699,0.14527 11.6614,0.29052 17.49207,0.43578 -0.07535,3.02476 -0.150717,6.04951 -0.22578,9.06254 -0.981493,-0.0245 -1.972716,-0.0491 -2.963925,-0.0738 0.05321,-2.13623 0.106132,-4.26014 0.159334,-6.39577 -1.370219,-0.0341 -2.759842,-0.0688 -4.139784,-0.10308 -0.04602,1.84725 -0.09175,3.68279 -0.13748,5.51832 -0.981503,-0.0245 -1.972707,-0.0491 -2.954203,-0.0736 0.04573,-1.83553 0.09145,-3.67108 0.137481,-5.51834 -2.478053,-0.0617 -4.956097,-0.12347 -7.434151,-0.1852 0.02212,-0.88915 0.04428,-1.77764 0.06644,-2.66677 z"
       id="path4210"
       inkscape:connector-curvature="0" />
    <path
       style="fill:#000000;fill-opacity:1;fill-rule:evenodd;stroke:none"
       d="m 22.235572,146.33601 c 5.789721,-0.70518 11.579443,-1.41036 17.369145,-2.11554 0.107525,0.88286 0.214987,1.76516 0.322511,2.64802 -5.789691,0.70518 -11.579413,1.41036 -17.369135,2.11554 -0.107525,-0.88287 -0.214996,-1.76517 -0.322521,-2.64802 z"
       id="path4212"
       inkscape:connector-curvature="0" />
    <path
       style="fill:#000000;fill-opacity:1;fill-rule:evenodd;stroke:none"
       d="m 30.825434,159.08712 c 0.952798,-0.23685 1.905609,-0.4737 2.858417,-0.71054 0.46242,1.86024 0.924841,3.72049 1.387278,5.58075 -2.254661,0.56047 -4.509313,1.12094 -6.763971,1.6814 -0.828982,-0.35285 -1.633315,-1.00966 -2.415135,-1.89818 -0.791223,-0.88619 -1.317213,-1.8739 -1.579196,-2.92782 -0.334267,-1.34466 -0.2588,-2.61266 0.257317,-3.80033 0.500263,-1.171 1.364554,-2.20707 2.628768,-3.04465 1.266941,-0.82684 2.702784,-1.45751 4.334839,-1.86321 1.773548,-0.44087 3.409124,-0.55021 4.913507,-0.34115 1.526082,0.21573 2.782022,0.79624 3.782634,1.67765 0.778863,0.67522 1.299352,1.64075 1.602986,2.8622 0.395514,1.59107 0.273645,2.95444 -0.393059,4.06017 -0.673323,1.1194 -1.73601,2.00218 -3.231314,2.63553 -0.428695,-0.79782 -0.850661,-1.60875 -1.27937,-2.4066 0.794972,-0.38823 1.359525,-0.8975 1.72757,-1.51231 0.358437,-0.61307 0.435471,-1.3105 0.251715,-2.04982 -0.281325,-1.13173 -0.978726,-1.92244 -2.095833,-2.34656 -1.117394,-0.42431 -2.606431,-0.41145 -4.474336,0.0529 -2.018803,0.50184 -3.432417,1.22222 -4.277502,2.1341 -0.851693,0.92558 -1.128808,1.94649 -0.855779,3.04471 0.133813,0.53833 0.411783,1.05226 0.831321,1.53101 0.416698,0.46738 0.863877,0.85607 1.37652,1.14526 0.716962,-0.17822 1.433921,-0.35643 2.150882,-0.53466 -0.245199,-0.98636 -0.493205,-1.98408 -0.73824,-2.96982 z"
       id="path4214"
       inkscape:connector-curvature="0" />
  </g>
  <path
     inkscape:connector-curvature="0"
     id="path4178"
     d="m 30.870329,81.563374 c 0.431453,-0.728452 0.868559,-1.466444 1.305665,-2.204429 2.605157,1.543024 5.206302,3.083659 7.815497,4.629067 1.238426,0.733515 2.060998,1.182069 2.453876,1.350494 0.648416,0.24895 1.249895,0.302979 1.815272,0.161905 0.574582,-0.12919 1.034559,-0.51275 1.401161,-1.131704 0.369432,-0.623735 0.484312,-1.192387 0.328555,-1.715577 -0.151724,-0.520757 -0.450594,-0.948571 -0.904053,-1.307234 -0.452294,-0.35155 -1.247339,-0.87391 -2.393616,-1.552838 -2.65326,-1.57151 -5.314538,-3.147763 -7.975806,-4.724019 0.431468,-0.728476 0.868566,-1.466458 1.302842,-2.199661 2.525006,1.495545 5.050011,2.991087 7.575006,4.486625 1.735454,1.027898 2.917287,1.811315 3.564133,2.355347 0.650909,0.546362 1.114403,1.116696 1.425272,1.725287 0.306831,0.606228 0.433343,1.279298 0.406061,1.983477 -0.01242,0.706537 -0.282701,1.491896 -0.795949,2.358436 -0.617588,1.042711 -1.23802,1.742846 -1.886514,2.079088 -0.63528,0.350502 -1.300734,0.541605 -1.997017,0.54724 -0.681481,0.008 -1.344269,-0.08871 -1.954971,-0.328264 -0.911445,-0.353237 -2.174939,-0.998779 -3.790128,-1.955447 -2.56911,-1.521662 -5.130182,-3.038576 -7.695262,-4.557857 z"
     style="fill:#000000;fill-opacity:1;fill-rule:evenodd;stroke:none" />
  <path
     inkscape:connector-curvature="0"
     id="path4180"
     d="M 52.13327,78.727191 C 47.658809,75.384508 43.176894,72.03626 38.702414,68.693562 c 0.496774,-0.664977 0.993568,-1.329977 1.487049,-1.990532 4.016674,0.873302 8.060685,1.663357 12.077371,2.536587 -2.989183,-2.233098 -5.978383,-4.466206 -8.967575,-6.699309 0.470321,-0.629559 0.943904,-1.2635 1.420788,-1.90185 4.47448,3.342698 8.956395,6.690946 13.430856,10.03363 -0.513321,0.687128 -1.026673,1.37428 -1.536673,2.056968 -3.929242,-0.842406 -7.889521,-1.60447 -11.818763,-2.446871 2.922021,2.182923 5.83656,4.36025 8.758571,6.543173 -0.473583,0.633935 -0.947185,1.2679 -1.420768,1.901833 z"
     style="fill:#000000;fill-opacity:1;fill-rule:evenodd;stroke:none" />
  <path
     inkscape:connector-curvature="0"
     id="path4182"
     d="m 60.683079,67.300203 c -4.073063,-3.821583 -8.1529,-7.64953 -12.225984,-11.471128 0.586887,-0.625508 1.169966,-1.246955 1.753092,-1.868456 4.073083,3.821598 8.152921,7.649544 12.225984,11.471128 -0.583126,0.621502 -1.166205,1.242949 -1.753092,1.868456 z"
     style="fill:#000000;fill-opacity:1;fill-rule:evenodd;stroke:none" />
  <path
     inkscape:connector-curvature="0"
     id="path4184"
     d="m 66.596515,61.402171 c -3.199155,-3.36664 -6.395088,-6.729891 -9.594263,-10.09655 -0.906564,0.861466 -1.813139,1.722938 -2.719703,2.584411 -0.654596,-0.68886 -1.305977,-1.374347 -1.954155,-2.056456 2.434902,-2.313772 4.86582,-4.623749 7.300762,-6.937561 0.648177,0.682108 1.299559,1.367594 1.954153,2.056454 -0.910587,0.865282 -1.817151,1.726748 -2.719734,2.58443 3.199175,3.366659 6.395109,6.72991 9.594264,10.096551 -0.617749,0.587019 -1.239551,1.177887 -1.861324,1.768721 z"
     style="fill:#000000;fill-opacity:1;fill-rule:evenodd;stroke:none" />
  <path
     inkscape:connector-curvature="0"
     id="path4186"
     d="m 72.078268,56.613289 c -3.159162,-4.605871 -6.323579,-9.219409 -9.482758,-13.8253 2.582876,-1.771586 5.165786,-3.543202 7.748619,-5.314762 0.532237,0.775968 1.06711,1.555781 1.604618,2.33943 -1.875507,1.286403 -3.760204,2.579115 -5.640339,3.868696 0.700865,1.02182 1.401724,2.043629 2.102605,3.065474 1.74778,-1.198791 3.500103,-2.400716 5.247915,-3.599539 0.529593,0.772115 1.064473,1.551941 1.596709,2.32791 -1.747803,1.198822 -3.500145,2.400743 -5.247915,3.599538 0.858952,1.252303 1.723167,2.512275 2.582119,3.764577 1.948587,-1.336531 3.892603,-2.669929 5.841137,-4.006434 0.532246,0.775971 1.064482,1.551941 1.596719,2.327911 -2.651351,1.818554 -5.298087,3.633951 -7.949429,5.452499 z"
     style="fill:#000000;fill-opacity:1;fill-rule:evenodd;stroke:none" />
  <path
     inkscape:connector-curvature="0"
     id="path4188"
     d="m 74.966107,34.755882 c 1.359946,-0.765301 2.719874,-1.530592 4.079821,-2.295883 0.916295,-0.51564 1.663759,-0.824022 2.255272,-0.90032 0.788244,-0.112179 1.601473,0.01281 2.420011,0.407395 0.821328,0.398375 1.633407,0.972995 2.38365,1.76415 0.766296,0.808834 1.540192,1.891367 2.307792,3.255385 0.680769,1.209746 1.148026,2.309813 1.414988,3.303438 0.325903,1.222352 0.398233,2.298794 0.271466,3.246729 -0.100527,0.71398 -0.420622,1.396572 -0.909644,2.051272 -0.368188,0.485182 -0.986086,0.955806 -1.801097,1.414452 -1.403343,0.789718 -2.797055,1.574016 -4.200398,2.363736 -2.7391,-4.86741 -5.482752,-9.742922 -8.221861,-14.610354 z m 3.624084,1.215763 c 1.813882,3.223293 3.630055,6.450642 5.446218,9.677986 0.554586,-0.312094 1.109172,-0.624185 1.663778,-0.936277 0.622067,-0.350066 1.043168,-0.651172 1.267806,-0.895192 0.293375,-0.325416 0.492061,-0.693823 0.563874,-1.119096 0.06718,-0.422619 0.0067,-1.003318 -0.21864,-1.742379 -0.213464,-0.729754 -0.643372,-1.67448 -1.276154,-2.798942 -0.635101,-1.128578 -1.196588,-1.945786 -1.691399,-2.474431 -0.487335,-0.527543 -0.966774,-0.87242 -1.428951,-1.061328 -0.462159,-0.188914 -0.937121,-0.210273 -1.418045,-0.105336 -0.361201,0.08032 -0.993964,0.377606 -1.91024,0.893242 -0.332746,0.187246 -0.66552,0.374516 -0.998238,0.561753 z"
     style="fill:#000000;fill-opacity:1;fill-rule:evenodd;stroke:none" />
  <path
     inkscape:connector-curvature="0"
     id="path4190"
     d="m 101.54915,35.761031 c 0.76775,-0.317911 1.54693,-0.638846 2.32042,-0.958304 0.42896,1.037422 0.94833,1.732103 1.5209,2.11328 0.56747,0.382552 1.23878,0.471785 1.98196,0.271482 0.79566,-0.214447 1.34149,-0.593105 1.62392,-1.161359 0.27526,-0.551804 0.33888,-1.123763 0.17888,-1.717438 -0.10305,-0.382321 -0.27584,-0.683121 -0.51644,-0.917384 -0.24148,-0.214715 -0.59698,-0.364967 -1.07927,-0.45205 -0.32442,-0.05728 -1.04778,-0.103543 -2.16151,-0.174888 -1.44946,-0.08211 -2.52216,-0.362274 -3.22184,-0.853962 -0.97988,-0.70075 -1.65853,-1.666085 -2.00403,-2.94792 -0.223043,-0.82758 -0.249658,-1.650208 -0.0899,-2.460357 0.14648,-0.816214 0.52581,-1.492563 1.0816,-2.047615 0.55401,-0.559393 1.31201,-0.956671 2.25253,-1.210163 1.54397,-0.416133 2.82682,-0.293918 3.83867,0.398249 1.00618,0.693701 1.73434,1.756621 2.17269,3.235382 -0.80278,0.274256 -1.62004,0.537936 -2.42854,0.813734 -0.33093,-0.803323 -0.72319,-1.344077 -1.15912,-1.622188 -0.4519,-0.273806 -1.02723,-0.302069 -1.72195,-0.114827 -0.71065,0.191536 -1.2249,0.537589 -1.52554,1.038343 -0.18699,0.325389 -0.23197,0.689702 -0.11801,1.112483 0.10304,0.382301 0.31803,0.671703 0.62879,0.887062 0.3967,0.25976 1.26703,0.406287 2.56544,0.46159 1.3066,0.06278 2.30494,0.194116 2.98044,0.446252 0.68752,0.253736 1.29092,0.665177 1.80055,1.280442 0.50212,0.607661 0.90025,1.426638 1.17663,2.452086 0.24973,0.926545 0.28643,1.847767 0.11953,2.761145 -0.16622,0.913198 -0.57135,1.664029 -1.16572,2.243947 -0.59644,0.594953 -1.4472,1.031747 -2.50006,1.315518 -1.5491,0.417517 -2.8775,0.273782 -3.95182,-0.459452 -1.06676,-0.725595 -1.95618,-1.962179 -2.59925,-3.733087 z"
     style="fill:#000000;fill-opacity:1;fill-rule:evenodd;stroke:none" />
  <path
     inkscape:connector-curvature="0"
     id="path4192"
     d="m 117.86126,37.942707 c -0.48188,-4.619162 -0.96327,-9.233674 -1.44516,-13.852861 -1.2438,0.129757 -2.49875,0.260675 -3.74254,0.39043 -0.0986,-0.945142 -0.19672,-1.885656 -0.29435,-2.821535 3.34067,-0.348507 6.68192,-0.697074 10.01728,-1.045026 0.0976,0.935879 0.19574,1.876394 0.29434,2.821536 -1.24964,0.130365 -2.48815,0.25957 -3.73193,0.389325 0.48188,4.619187 0.96327,9.233698 1.44515,13.852861 -0.84721,0.08838 -1.69499,0.176825 -2.54279,0.26527 z"
     style="fill:#000000;fill-opacity:1;fill-rule:evenodd;stroke:none" />
  <path
     inkscape:connector-curvature="0"
     id="path4194"
     d="m 136.55784,37.705895 c -0.92978,0 -1.85423,0 -2.78343,0 -0.35974,-1.271683 -0.74725,-2.53407 -1.10698,-3.805753 -1.68236,0 -3.37535,0 -5.06361,0 -0.34261,1.271683 -0.70238,2.53407 -1.04558,3.805753 -0.902,0 -1.80933,0 -2.71728,0 1.61621,-5.594487 3.32572,-11.165703 4.94191,-16.764887 0.90203,0 1.79816,0 2.70016,0 1.66051,5.599184 3.4143,11.1704 5.07481,16.764887 z m -4.71506,-6.633306 c -0.56414,-2.072864 -1.16725,-4.141105 -1.74318,-6.223342 -0.55883,2.082237 -1.15071,4.150478 -1.70956,6.223342 1.15073,0 2.30733,0 3.45274,0 z"
     style="fill:#000000;fill-opacity:1;fill-rule:evenodd;stroke:none" />
  <path
     inkscape:connector-curvature="0"
     id="path4196"
     d="m 139.1835,37.945094 c 0.82464,-4.57043 1.64846,-9.136258 2.4731,-13.706713 -1.23066,-0.222052 -2.46131,-0.444097 -3.692,-0.666152 0.16872,-0.935171 0.33664,-1.865763 0.50371,-2.791769 3.29441,0.594411 6.59982,1.190807 9.90582,1.78731 -0.16709,0.926006 -0.33499,1.856598 -0.50373,2.791769 -1.23124,-0.222155 -2.4619,-0.444202 -3.69257,-0.666252 -0.82464,4.570455 -1.64846,9.136283 -2.4731,13.706714 -0.83829,-0.151253 -1.67714,-0.302608 -2.52123,-0.454907 z"
     style="fill:#000000;fill-opacity:1;fill-rule:evenodd;stroke:none" />
  <path
     inkscape:connector-curvature="0"
     id="path4198"
     d="m 147.39502,39.506819 c 1.53582,-5.369879 3.07419,-10.748698 4.61002,-16.118598 3.01692,0.862857 6.02812,1.72408 9.03425,2.583849 -0.25875,0.904683 -0.51877,1.813848 -0.78008,2.727487 -2.19225,-0.626997 -4.37884,-1.252373 -6.57109,-1.879372 -0.34073,1.191317 -0.68144,2.382621 -1.02218,3.573967 2.03778,0.582817 4.07555,1.165631 6.11844,1.74991 -0.25746,0.900191 -0.51748,1.809371 -0.77623,2.714055 -2.04289,-0.584279 -4.08067,-1.167093 -6.11845,-1.74991 -0.41757,1.460031 -0.83771,2.929004 -1.25529,4.389034 2.26667,0.64828 4.53844,1.298018 6.80509,1.946295 -0.25874,0.904686 -0.51748,1.809372 -0.77623,2.714056 -3.09131,-0.884134 -6.17693,-1.766637 -9.26825,-2.650773 z"
     style="fill:#000000;fill-opacity:1;fill-rule:evenodd;stroke:none" />
  <path
     inkscape:connector-curvature="0"
     id="path4200"
     d="m 160.5127,37.273999 c 0.7896,0.277123 1.57922,0.554314 2.36936,0.831712 -0.37189,1.059142 -0.44743,1.923217 -0.27389,2.589232 0.16774,0.663093 0.60941,1.177182 1.29654,1.522725 0.73672,0.370476 1.40078,0.454175 1.98473,0.215954 0.57346,-0.227808 1.002,-0.611919 1.27824,-1.161233 0.1779,-0.353754 0.24946,-0.693185 0.23086,-1.025805 -0.0417,-0.32336 -0.20725,-0.672556 -0.50364,-1.056206 -0.209,-0.261503 -0.71231,-0.775317 -1.50056,-1.573233 -1.02562,-1.026709 -1.63889,-1.950359 -1.83354,-2.783447 -0.26383,-1.175443 -0.12618,-2.347197 0.47025,-3.533251 0.38508,-0.765741 0.91295,-1.397101 1.57176,-1.894834 0.65357,-0.510796 1.38709,-0.762402 2.17612,-0.803592 0.78055,-0.05068 1.61103,0.158389 2.48601,0.598395 1.42385,0.71602 2.29852,1.661633 2.59186,2.851957 0.28861,1.187944 0.1229,2.465473 -0.53497,3.860512 -0.78189,-0.330634 -1.56172,-0.675875 -2.35313,-1.011288 0.28786,-0.819839 0.35625,-1.484131 0.21596,-1.98223 -0.15454,-0.505261 -0.56422,-0.909419 -1.20226,-1.230271 -0.66233,-0.333069 -1.27636,-0.417646 -1.8342,-0.244544 -0.35677,0.117786 -0.63303,0.359493 -0.82975,0.750682 -0.17788,0.353737 -0.20987,0.713052 -0.12215,1.080435 0.12276,0.458019 0.67411,1.147159 1.60608,2.053801 0.93245,0.917358 1.58891,1.680226 1.9246,2.318297 0.34362,0.647285 0.51994,1.35639 0.49006,2.154766 -0.0305,0.787678 -0.27923,1.663659 -0.75637,2.612484 -0.43111,0.857311 -1.01809,1.568446 -1.75052,2.138651 -0.73293,0.569955 -1.53532,0.859907 -2.36495,0.896328 -0.8406,0.04655 -1.76129,-0.192195 -2.74025,-0.68449 -1.43388,-0.721061 -2.32817,-1.713064 -2.64128,-2.975906 -0.31204,-1.251847 -0.14607,-2.763905 0.54903,-4.515601 z"
     style="fill:#000000;fill-opacity:1;fill-rule:evenodd;stroke:none" />
  <path
     inkscape:connector-curvature="0"
     id="path4202"
     d="m 176.66034,52.100531 c 3.35217,-4.46735 6.70993,-8.942139 10.06214,-13.409509 0.66385,0.498143 1.32344,0.993081 1.99154,1.494396 -0.88618,4.011559 -1.68471,8.053965 -2.57086,12.065502 2.23944,-2.984438 4.47889,-5.96889 6.71834,-8.953336 0.63736,0.478264 1.26576,0.949801 1.89891,1.424888 -3.3522,4.467368 -6.70996,8.942158 -10.06214,13.409508 -0.68179,-0.511594 -1.36784,-1.026395 -2.04963,-1.537993 0.85097,-3.927273 1.62141,-7.885942 2.47238,-11.813217 -2.18912,2.917382 -4.37263,5.827285 -6.56175,8.744665 -0.63313,-0.475074 -1.26153,-0.946619 -1.89893,-1.424904 z"
     style="fill:#000000;fill-opacity:1;fill-rule:evenodd;stroke:none" />
  <path
     inkscape:connector-curvature="0"
     id="path4204"
     d="m 195.55187,68.509183 c -0.63905,-0.675349 -1.27445,-1.346836 -1.91311,-2.021759 0.67237,-1.139644 1.32702,-2.284496 1.9998,-3.423715 -1.15631,-1.221983 -2.31627,-2.447816 -3.48029,-3.677951 -1.15554,0.629055 -2.32379,1.231122 -3.48296,1.856323 -0.61999,-0.655183 -1.23996,-1.310373 -1.86765,-1.973706 5.174,-2.671716 10.39608,-5.258777 15.57353,-7.933693 0.61995,0.655169 1.23992,1.310343 1.85627,1.961691 -2.92207,5.058389 -5.75923,10.165788 -8.68559,15.21281 z m 1.57737,-7.984008 c 1.11382,-1.838784 2.20563,-3.694111 3.32222,-5.54362 -1.90017,1.021419 -3.80563,2.016886 -5.69535,3.035714 0.79497,0.84011 1.58222,1.672069 2.37313,2.507906 z"
     style="fill:#000000;fill-opacity:1;fill-rule:evenodd;stroke:none" />
  <path
     inkscape:connector-curvature="0"
     id="path4206"
     d="m 198.49361,72.069719 c 3.70309,-4.4479 7.34661,-8.955638 11.04865,-13.396977 0.5318,0.748943 1.06703,1.502709 1.60191,2.255998 -2.76434,3.259694 -5.48889,6.551268 -8.25974,9.801798 3.96579,-1.567684 7.95265,-3.081512 11.91535,-4.653528 0.52531,0.739809 1.04755,1.475282 1.57318,2.215552 -5.41647,2.026881 -10.87633,3.976618 -16.29967,6.001852 -0.52565,-0.740278 -1.05405,-1.484433 -1.57968,-2.224695 z"
     style="fill:#000000;fill-opacity:1;fill-rule:evenodd;stroke:none" />
  <path
     inkscape:connector-curvature="0"
     id="path4208"
     d="m 205.36899,81.953419 c 2.06937,-1.108893 4.14694,-2.222174 6.22449,-3.335455 2.14148,-2.867886 4.21649,-5.800644 6.36115,-8.682314 0.47042,0.877865 0.94612,1.765611 1.42183,2.653358 -1.49432,1.905856 -2.94626,3.851336 -4.44056,5.757215 2.40916,-0.198592 4.81754,-0.359208 7.2267,-0.557812 0.46007,0.858578 0.92519,1.726551 1.39057,2.59502 -3.58211,0.199151 -7.19469,0.302045 -10.78208,0.491296 -2.06937,1.108891 -4.1305,2.213365 -6.19987,3.322257 -0.4026,-0.75132 -0.79991,-1.492763 -1.20223,-2.243565 z"
     style="fill:#000000;fill-opacity:1;fill-rule:evenodd;stroke:none" />
  <path
     inkscape:connector-curvature="0"
     id="path4216"
     d="m 28.041942,165.87987 c 5.12768,-2.22563 10.25536,-4.45126 15.383029,-6.67688 0.339149,0.78138 0.683004,1.5736 1.017686,2.3447 -2.016881,0.8754 -4.033765,1.75082 -6.059191,2.62994 0.669832,1.54323 1.335197,3.0762 1.996332,4.59941 2.025437,-0.87912 4.042319,-1.75453 6.059203,-2.62995 0.343614,0.79167 0.683004,1.57359 1.022152,2.35497 -5.12766,2.22562 -10.255341,4.45126 -15.383029,6.67688 -0.339149,-0.78138 -0.67854,-1.5633 -1.022153,-2.35498 2.239065,-0.97184 4.486705,-1.94741 6.72583,-2.91928 -0.661134,-1.52321 -1.326508,-3.05618 -1.996343,-4.59941 -2.239115,0.97187 -4.486755,1.94743 -6.72583,2.91929 -0.334674,-0.77109 -0.678538,-1.56331 -1.017686,-2.34469 z"
     style="fill:#000000;fill-opacity:1;fill-rule:evenodd;stroke:none" />
  <path
     inkscape:connector-curvature="0"
     id="path4218"
     d="m 36.736096,184.01127 c 3.968569,-2.42132 7.929158,-4.83777 11.889778,-7.25425 -0.651334,-1.06753 -1.308497,-2.14464 -1.959831,-3.21217 0.811202,-0.49493 1.622415,-0.98988 2.425665,-1.47996 1.746621,2.86272 3.498773,5.73451 5.245392,8.59724 -0.80325,0.49009 -1.614461,0.98502 -2.425664,1.47997 -0.657181,-1.07714 -1.302667,-2.13508 -1.953983,-3.2026 -3.960619,2.41647 -7.921198,4.83293 -11.889769,7.25424 -0.44397,-0.72766 -0.893474,-1.4644 -1.331588,-2.18247 z"
     style="fill:#000000;fill-opacity:1;fill-rule:evenodd;stroke:none" />
  <path
     inkscape:connector-curvature="0"
     id="path4220"
     d="m 43.717191,194.31869 c 4.259214,-3.62018 8.518419,-7.24036 12.777614,-10.86052 2.028362,2.3864 4.056724,4.77281 6.085067,7.15921 -0.716958,0.60939 -1.441028,1.22482 -2.165087,1.84025 -1.476306,-1.73691 -2.953024,-3.47429 -4.429349,-5.21121 -0.944118,0.80247 -1.888244,1.60494 -2.832352,2.4074 1.376105,1.61901 2.752191,3.23801 4.121387,4.84887 -0.709885,0.60338 -1.433945,1.21881 -2.150912,1.8282 -1.369186,-1.61087 -2.745272,-3.22986 -4.121378,-4.84887 -1.157083,0.98348 -2.321277,1.973 -3.47836,2.95647 1.526833,1.79634 3.053263,3.59222 4.587351,5.39711 -0.716968,0.6094 -1.433926,1.21878 -2.150903,1.82819 -2.07886,-2.44583 -4.164601,-4.89974 -6.243078,-7.3451 z"
     style="fill:#000000;fill-opacity:1;fill-rule:evenodd;stroke:none" />
  <path
     inkscape:connector-curvature="0"
     id="path4222"
     d="m 54.800802,205.76699 c 3.757292,-4.13875 7.514584,-8.27752 11.271847,-12.41626 1.327428,1.20508 2.654828,2.41014 3.982237,3.61519 1.008148,0.91524 1.63702,1.68747 1.887113,2.31716 0.237999,0.64392 0.258058,1.37936 0.0067,2.18282 -0.249049,0.81829 -0.698595,1.59297 -1.36862,2.33103 -0.845422,0.93125 -1.753494,1.50353 -2.708115,1.73162 -0.967177,0.24185 -1.926072,0.0634 -2.897609,-0.52917 0.115534,0.69622 0.152864,1.34672 0.06421,1.97084 -0.08194,0.61759 -0.314469,1.61455 -0.754824,2.98895 -0.356074,1.14889 -0.688858,2.30643 -1.051228,3.46224 -0.753578,-0.68411 -1.507597,-1.36864 -2.261626,-2.05317 0.369864,-1.3126 0.708533,-2.64091 1.078389,-3.95351 0.401271,-1.39733 0.608131,-2.3168 0.659626,-2.7356 0.05357,-0.40439 0.01332,-0.7555 -0.09584,-1.03076 -0.108711,-0.27484 -0.397112,-0.5996 -0.831419,-0.99386 -0.131272,-0.11918 -0.261978,-0.23785 -0.385304,-0.3498 -1.565543,1.72447 -3.131066,3.44896 -4.702895,5.18035 -0.630674,-0.57256 -1.270107,-1.15305 -1.89249,-1.71807 z m 8.398849,-5.44886 c 0.467104,0.42406 0.934208,0.8481 1.40133,1.27216 0.909711,0.82587 1.526967,1.29808 1.842194,1.39556 0.315255,0.0974 0.651978,0.0886 1.000308,-0.0482 0.350457,-0.12232 0.704058,-0.38008 1.042209,-0.75256 0.37573,-0.41387 0.592529,-0.83364 0.666431,-1.24469 0.06766,-0.40412 -0.03412,-0.7859 -0.274504,-1.13005 -0.130687,-0.16896 -0.576936,-0.59923 -1.338862,-1.29093 -0.4999,-0.45383 -0.991491,-0.90009 -1.483522,-1.34678 -0.951852,1.04848 -1.903713,2.09698 -2.855555,3.14546 z"
     style="fill:#000000;fill-opacity:1;fill-rule:evenodd;stroke:none" />
  <path
     inkscape:connector-curvature="0"
     id="path4224"
     d="m 83.312506,224.66913 c 1.196282,-5.55782 2.32374,-11.12352 3.515968,-16.67291 0.80006,0.32522 1.609954,0.65445 2.42971,0.98769 -0.870858,3.78937 -1.701213,7.5952 -2.576134,11.39297 2.156519,-3.27679 4.340179,-6.53251 6.493181,-9.80068 0.932482,0.37905 1.87589,0.76255 2.808919,1.14183 -0.793083,3.89139 -1.556064,7.795 -2.349137,11.68638 2.05443,-3.37863 4.149906,-6.74058 6.214207,-10.11522 0.78963,0.32099 1.58914,0.64599 2.38919,0.97121 -3.038034,4.79906 -6.133856,9.56463 -9.175398,14.37233 -0.830691,-0.33768 -1.671234,-0.67936 -2.512333,-1.02127 0.816803,-4.18344 1.578653,-8.37921 2.385058,-12.56685 -2.334254,3.56657 -4.71591,7.10387 -7.049617,10.67069 -0.861341,-0.35014 -1.722681,-0.70027 -2.573614,-1.04617 z"
     style="fill:#000000;fill-opacity:1;fill-rule:evenodd;stroke:none" />
  <path
     inkscape:connector-curvature="0"
     id="path4226"
     d="m 102.36247,231.35431 c 1.27555,-5.44238 2.55111,-10.88477 3.82665,-16.32712 3.0384,0.71213 6.08775,1.42681 9.13707,2.1415 -0.21471,0.91612 -0.43156,1.84133 -0.6484,2.76653 -2.20851,-0.51762 -4.42847,-1.03792 -6.6479,-1.55809 -0.28276,1.20638 -0.5655,2.41278 -0.84824,3.61916 2.05779,0.48229 4.12654,0.96716 6.19585,1.45214 -0.21261,0.90708 -0.42944,1.83226 -0.64415,2.7484 -2.06932,-0.48499 -4.13806,-0.96985 -6.19586,-1.45214 -0.34653,1.4785 -0.69517,2.96612 -1.0417,4.44462 2.29477,0.53783 4.5901,1.07579 6.89579,1.6162 -0.21472,0.91613 -0.42945,1.83226 -0.64416,2.74839 -3.1356,-0.73491 -6.26027,-1.46724 -9.38495,-2.19959 z"
     style="fill:#000000;fill-opacity:1;fill-rule:evenodd;stroke:none" />
  <path
     inkscape:connector-curvature="0"
     id="path4228"
     d="m 127.91184,234.69761 c -0.92808,-0.0561 -1.85616,-0.11212 -2.78427,-0.16817 -0.27624,-1.29537 -0.58723,-2.57416 -0.87464,-3.87021 -1.67931,-0.10142 -3.3586,-0.20286 -5.0485,-0.30493 -0.41953,1.25335 -0.86034,2.48673 -1.27928,3.7401 -0.89509,-0.0541 -1.80076,-0.10877 -2.70705,-0.1635 1.95084,-5.49153 3.98786,-10.94987 5.93868,-16.44143 0.90568,0.0547 1.80018,0.10873 2.69522,0.1628 1.33052,5.68975 2.73997,11.35625 4.05984,17.04534 z m -4.30655,-6.90552 c -0.43787,-2.10777 -0.92108,-4.20897 -1.37012,-6.31746 -0.67774,2.04043 -1.38795,4.06954 -2.07632,6.10929 1.14863,0.0694 2.29782,0.13879 3.44644,0.20817 z"
     style="fill:#000000;fill-opacity:1;fill-rule:evenodd;stroke:none" />
  <path
     inkscape:connector-curvature="0"
     id="path4230"
     d="m 131.83641,234.55158 c -0.4609,-5.57083 -0.92181,-11.14165 -1.38271,-16.71245 1.36816,-0.1132 2.73568,-0.22634 4.10324,-0.33949 1.54416,-0.12775 2.566,-0.12815 3.04314,6.3e-4 0.74839,0.19049 1.41126,0.68719 1.95488,1.48356 0.55498,0.80476 0.89784,1.8608 1.00846,3.19779 0.0845,1.02131 0.0128,1.89662 -0.21621,2.61671 -0.20652,0.72755 -0.53698,1.2971 -0.92311,1.73101 -0.40791,0.4357 -0.82713,0.74152 -1.26852,0.90891 -0.59254,0.21727 -1.45825,0.3637 -2.6274,0.46043 -0.55103,0.0456 -1.10267,0.0912 -1.65428,0.13686 0.17361,2.09832 0.34722,4.19669 0.5216,6.30431 -0.84949,0.0703 -1.69841,0.14052 -2.55909,0.21173 z m 1.41066,-14.09235 c 0.13059,1.5784 0.26118,3.15679 0.39254,4.74446 0.46332,-0.0383 0.92662,-0.0767 1.38992,-0.11499 1.01436,-0.0839 1.67955,-0.23244 1.99581,-0.4362 0.3282,-0.19541 0.57007,-0.49589 0.73775,-0.88367 0.15623,-0.39622 0.21986,-0.83149 0.17915,-1.32358 -0.0507,-0.61281 -0.2345,-1.09306 -0.53242,-1.47038 -0.29796,-0.37732 -0.65938,-0.59048 -1.08699,-0.65793 -0.30479,-0.0589 -0.92466,-0.0356 -1.84066,0.0401 -0.41857,0.0346 -0.82713,0.0684 -1.2351,0.10218 z"
     style="fill:#000000;fill-opacity:1;fill-rule:evenodd;stroke:none" />
  <path
     inkscape:connector-curvature="0"
     id="path4232"
     d="m 142.62509,225.39308 c -0.40201,-1.65682 -0.55765,-3.09542 -0.45357,-4.30943 0.0643,-0.90718 0.28424,-1.73706 0.6078,-2.51539 0.31323,-0.77584 0.73473,-1.38621 1.23598,-1.85296 0.64553,-0.62638 1.50078,-1.04481 2.48988,-1.2848 1.81801,-0.44111 3.469,-0.0652 4.90724,1.16766 1.42953,1.24453 2.48735,3.16409 3.13319,5.82584 0.63708,2.62562 0.5875,4.81378 -0.11709,6.557 -0.7024,1.75226 -1.98496,2.84955 -3.79211,3.28804 -1.83928,0.44627 -3.48209,0.0588 -4.91757,-1.16517 -1.42514,-1.2264 -2.46547,-3.12142 -3.09375,-5.71079 z m 2.53337,-0.72971 c 0.44595,1.83789 1.10906,3.16291 1.98277,3.94794 0.86939,0.81488 1.81198,1.08466 2.80166,0.84452 0.98909,-0.23999 1.70324,-0.91176 2.09656,-2.01382 0.39277,-1.10189 0.38361,-2.59522 -0.0733,-4.47839 -0.45252,-1.86505 -1.11127,-3.17201 -1.93971,-3.95842 -0.83719,-0.77471 -1.78627,-1.02377 -2.80753,-0.77598 -1.0218,0.24793 -1.74904,0.91332 -2.13808,1.98555 -0.39495,1.09286 -0.37926,2.56542 0.0776,4.4486 z"
     style="fill:#000000;fill-opacity:1;fill-rule:evenodd;stroke:none" />
  <path
     inkscape:connector-curvature="0"
     id="path4234"
     d="m 161.48366,229.18194 c -2.19416,-5.14123 -4.38833,-10.28245 -6.58248,-15.42365 0.76331,-0.32576 1.52665,-0.65155 2.29,-0.97733 3.03752,2.77568 6.14246,5.48208 9.16965,8.26214 -1.46642,-3.43605 -2.92921,-6.86354 -4.39564,-10.29959 0.73293,-0.31279 1.4555,-0.62117 2.18842,-0.93396 2.19416,5.1412 4.38832,10.28242 6.58249,15.42365 -0.79378,0.33877 -1.57774,0.67334 -2.3612,1.00771 -2.97052,-2.70298 -6.02556,-5.34962 -8.99605,-8.05257 1.4335,3.35889 2.8597,6.70069 4.29324,10.05963 -0.72261,0.30839 -1.45553,0.62119 -2.18843,0.93397 z"
     style="fill:#000000;fill-opacity:1;fill-rule:evenodd;stroke:none" />
  <path
     inkscape:connector-curvature="0"
     id="path4236"
     d="m 172.23562,219.1325 c 0.67432,-0.47462 1.35884,-0.97606 2.02372,-1.46675 0.67181,0.90691 1.32821,1.46123 1.98634,1.69614 0.63841,0.24569 1.30728,0.17747 1.98739,-0.19415 0.73816,-0.40335 1.16581,-0.91301 1.31153,-1.52349 0.12602,-0.59968 0.0702,-1.16373 -0.2246,-1.70329 -0.19656,-0.35974 -0.43511,-0.61161 -0.72466,-0.77183 -0.28904,-0.16059 -0.66839,-0.20813 -1.16386,-0.19216 -0.31498,0.0235 -1.03348,0.14006 -2.13581,0.33893 -1.4186,0.26557 -2.54142,0.24212 -3.32015,-0.0755 -1.12633,-0.44622 -2.01231,-1.23611 -2.64665,-2.39703 -0.41099,-0.75215 -0.6396,-1.54025 -0.66681,-2.37468 -0.0469,-0.82372 0.15162,-1.56917 0.56584,-2.24141 0.41472,-0.6725 1.04384,-1.22859 1.91834,-1.70643 1.39858,-0.7642 2.66167,-0.94477 3.80769,-0.50933 1.14602,0.43544 2.10476,1.31295 2.87627,2.63251 -0.71137,0.45237 -1.44242,0.91554 -2.17297,1.37843 -0.49763,-0.72604 -1.00607,-1.14891 -1.5042,-1.32261 -0.48971,-0.15708 -1.06478,-0.0552 -1.7055,0.29492 -0.64123,0.35037 -1.06754,0.81688 -1.22037,1.3675 -0.10819,0.35639 -0.0832,0.72493 0.13124,1.11735 0.18762,0.34337 0.46502,0.574 0.81269,0.70254 0.47001,0.16782 1.33903,0.0964 2.61422,-0.15452 1.28463,-0.23479 2.27923,-0.35362 3.00882,-0.26388 0.71089,0.0999 1.40608,0.35701 2.04583,0.83554 0.63084,0.46214 1.19555,1.17281 1.7048,2.10479 0.46458,0.85026 0.71876,1.73055 0.7714,2.65727 0.0521,0.92703 -0.15792,1.74249 -0.60256,2.45259 -0.44418,0.70979 -1.16181,1.33548 -2.13326,1.8663 -1.39857,0.7642 -2.71839,0.93334 -3.93011,0.47008 -1.22192,-0.43643 -2.37643,-1.44054 -3.41461,-3.0178 z"
     style="fill:#000000;fill-opacity:1;fill-rule:evenodd;stroke:none" />
  <path
     inkscape:connector-curvature="0"
     id="path4238"
     d="m 199.21344,200.63524 c 0.42008,-0.70956 0.83847,-1.44781 1.24334,-2.16817 0.98524,0.55074 1.81092,0.78729 2.50749,0.73135 0.68303,-0.038 1.2653,-0.37522 1.73258,-0.99279 0.49437,-0.65338 0.68831,-1.31111 0.55741,-1.91015 -0.11766,-0.61649 -0.40045,-1.10745 -0.89075,-1.47844 -0.32692,-0.24734 -0.64741,-0.37965 -0.97727,-0.40683 -0.32987,-0.0273 -0.69527,0.085 -1.14049,0.30298 -0.27763,0.15075 -0.88494,0.55196 -1.80814,1.18528 -1.18495,0.82496 -2.21808,1.26398 -3.07211,1.31187 -1.19703,0.0379 -2.34236,-0.30123 -3.39732,-1.09943 -0.6835,-0.51718 -1.20231,-1.15935 -1.58277,-1.89172 -0.36732,-0.74978 -0.49265,-1.51057 -0.39052,-2.29403 0.0887,-0.76557 0.44754,-1.54878 1.03495,-2.32512 0.96165,-1.27091 2.05285,-1.97193 3.27661,-2.04526 1.22378,-0.0733 2.45822,0.33332 3.70337,1.21989 -0.47618,0.72193 -0.93917,1.42648 -1.41566,2.14888 -0.76504,-0.44031 -1.40222,-0.61724 -1.91455,-0.58863 -0.51104,0.0578 -0.99361,0.38675 -1.43414,0.96899 -0.44092,0.58269 -0.6378,1.1826 -0.56469,1.76535 0.0476,0.36938 0.23494,0.67773 0.5915,0.94756 0.31203,0.2361 0.65965,0.33254 1.02943,0.30708 0.49748,-0.0399 1.2474,-0.44434 2.30722,-1.19654 1.08823,-0.75882 1.94641,-1.27544 2.63537,-1.47565 0.70243,-0.21814 1.44188,-0.26906 2.2217,-0.0953 0.75174,0.17987 1.57192,0.57826 2.41885,1.2191 0.77265,0.58462 1.36537,1.28351 1.79378,2.10691 0.42809,0.82392 0.55806,1.67117 0.45761,2.48332 -0.11402,0.83004 -0.51161,1.69516 -1.17921,2.57746 -0.96165,1.27093 -2.09608,1.9674 -3.40436,2.05974 -1.2802,0.0862 -2.74474,-0.35608 -4.33922,-1.36771 z"
     style="fill:#000000;fill-opacity:1;fill-rule:evenodd;stroke:none" />
  <path
     inkscape:connector-curvature="0"
     id="path4240"
     d="m 211.63008,183.05985 c 0.6963,-0.55841 1.3863,-1.14487 2.08231,-1.70276 1.43768,1.18704 2.33928,2.391 2.71559,3.59156 0.38627,1.18174 0.25323,2.38862 -0.3889,3.60134 -0.78728,1.4868 -2.11503,2.36185 -3.96231,2.58553 -1.85783,0.24347 -3.94466,-0.23519 -6.28295,-1.47333 -2.47003,-1.30788 -4.12116,-2.80849 -4.9804,-4.49066 -0.85922,-1.68217 -0.86128,-3.31084 -0.0326,-4.87596 0.72505,-1.36929 1.85295,-2.22521 3.38508,-2.49077 0.89497,-0.17712 2.00769,-0.0885 3.31769,0.30429 -0.14661,0.87418 -0.30971,1.73964 -0.4728,2.60512 -0.84633,-0.27313 -1.5843,-0.31286 -2.24618,-0.13796 -0.67265,0.19528 -1.17241,0.58166 -1.49363,1.18828 -0.43482,0.82118 -0.40229,1.71539 0.11889,2.64237 0.52119,0.92699 1.64401,1.87246 3.42244,2.81414 1.86073,0.98527 3.33969,1.41745 4.40529,1.35605 1.07639,-0.0817 1.80728,-0.54627 2.2421,-1.36747 0.3212,-0.60659 0.34343,-1.24587 0.061,-1.94687 -0.2827,-0.70044 -0.90724,-1.4322 -1.89068,-2.2029 z"
     style="fill:#000000;fill-opacity:1;fill-rule:evenodd;stroke:none" />
  <path
     inkscape:connector-curvature="0"
     id="path4242"
     d="m 220.54023,180.94002 c -5.05645,-2.38306 -10.11289,-4.76611 -15.1693,-7.14917 0.35861,-0.76089 0.72653,-1.54157 1.08514,-2.30247 1.98886,0.93733 3.97772,1.87466 5.98342,2.81994 0.71721,-1.52183 1.42511,-3.02386 2.14208,-4.54515 -2.00569,-0.94526 -3.99456,-1.8826 -5.98341,-2.81993 0.3586,-0.7609 0.72678,-1.54211 1.08538,-2.303 5.05642,2.38305 10.11285,4.76612 15.1693,7.14916 -0.3586,0.76088 -0.72678,1.5421 -1.08539,2.303 -2.20797,-1.04059 -4.41596,-2.08121 -6.62392,-3.1218 -0.71697,1.52129 -1.42486,3.02333 -2.14209,4.54514 2.20796,1.0406 4.41596,2.08122 6.62393,3.1218 -0.35862,0.76092 -0.72654,1.54158 -1.08514,2.30248 z"
     style="fill:#000000;fill-opacity:1;fill-rule:evenodd;stroke:none" />
  <path
     inkscape:connector-curvature="0"
     id="path4244"
     d="m 219.08995,165.37269 c -1.60347,-0.60604 -2.87519,-1.29948 -3.82277,-2.05991 -0.70005,-0.57211 -1.26596,-1.23563 -1.72134,-1.9281 -0.47259,-0.69959 -0.73008,-1.38861 -0.83268,-2.06584 -0.1617,-0.88965 -0.0247,-1.83183 0.33509,-2.78392 0.65745,-1.73948 1.91191,-2.89774 3.73251,-3.39311 1.83801,-0.48873 4.02838,-0.27593 6.59054,0.69244 2.52725,0.95517 4.29336,2.23773 5.33124,3.81341 1.0632,1.56128 1.24567,3.23932 0.58825,4.97878 -0.66517,1.75992 -1.91962,2.9182 -3.73225,3.39254 -1.82062,0.49532 -3.97615,0.29572 -6.46858,-0.64629 z m 0.82668,-2.5034 c 1.76037,0.66535 3.245,0.84817 4.37833,0.5901 1.15851,-0.27195 1.90905,-0.88751 2.26909,-1.84016 0.35983,-0.95205 0.21202,-1.93117 -0.46729,-2.87436 -0.69697,-0.94922 -1.93913,-1.7736 -3.75179,-2.45869 -1.79522,-0.6785 -3.23723,-0.86861 -4.36267,-0.63153 -1.10796,0.24367 -1.84904,0.88684 -2.22453,1.88034 -0.36779,0.97308 -0.21993,1.95221 0.4422,2.88823 0.67932,0.94319 1.90401,1.76097 3.71669,2.44607 z"
     style="fill:#000000;fill-opacity:1;fill-rule:evenodd;stroke:none" />
  <path
     inkscape:connector-curvature="0"
     id="path4246"
     d="m 223.70157,151.34083 c -1.67974,-0.34193 -3.05028,-0.80185 -4.10276,-1.42299 -0.78697,-0.43087 -1.45167,-0.99538 -2.01175,-1.60674 -0.57846,-0.61449 -0.94276,-1.25353 -1.15228,-1.90561 -0.30184,-0.85238 -0.31723,-1.80437 -0.11419,-2.80168 0.3753,-1.84362 1.42427,-3.1667 3.14216,-3.94608 1.73626,-0.77624 3.9325,-0.91631 6.61649,-0.36992 2.64744,0.53895 4.59583,1.52276 5.87223,2.9123 1.29907,1.37126 1.74741,2.99854 1.37647,4.82073 -0.3753,1.8436 -1.42415,3.1661 -3.14202,3.94548 -1.71804,0.77995 -3.8734,0.90603 -6.48434,0.37451 z m 0.41591,-2.60335 c 1.84409,0.3754 3.3346,0.33945 4.412,-0.0959 1.10016,-0.45362 1.74265,-1.18126 1.95016,-2.20058 0.20315,-0.99793 -0.10374,-1.91884 -0.92508,-2.7413 -0.83973,-0.82567 -2.19769,-1.44085 -4.09655,-1.82741 -1.88059,-0.38284 -3.33443,-0.34006 -4.40303,0.0519 -1.05925,0.43961 -1.68789,1.19239 -1.89551,2.2123 -0.21187,1.04075 0.0906,1.98366 0.89378,2.80186 0.82134,0.82246 2.16537,1.41256 4.06424,1.79912 z"
     style="fill:#000000;fill-opacity:1;fill-rule:evenodd;stroke:none" />
  <path
     inkscape:connector-curvature="0"
     id="path4248"
     d="m 234.37904,134.91318 c -5.53388,0.033 -11.08634,0.0661 -16.6202,0.0991 -0.005,-0.86305 -0.0102,-1.7042 -0.0153,-2.56721 4.60223,-0.0274 9.20445,-0.0548 13.80668,-0.0823 -0.0127,-2.12537 -0.0252,-4.22766 -0.0379,-6.35302 0.93164,-0.006 1.88189,-0.0112 2.81353,-0.0168 0.0177,2.96591 0.0354,5.93243 0.0532,8.9202 z"
     style="fill:#000000;fill-opacity:1;fill-rule:evenodd;stroke:none" />
</svg>
